<?xml version="1.0" encoding="utf-8"?>
<!-- Generator: Adobe Illustrator 21.1.0, SVG Export Plug-In . SVG Version: 6.00 Build 0)  -->
<svg version="1.1" xmlns="http://www.w3.org/2000/svg" xmlns:xlink="http://www.w3.org/1999/xlink" x="0px" y="0px"
	 viewBox="0 0 400 400" style="enable-background:new 0 0 400 400;" xml:space="preserve">
<style type="text/css">
	.st0{fill:#2ECC71;}
	.st1{fill:#FFFFFF;stroke:#231F20;stroke-miterlimit:10;}
	.st2{clip-path:url(#SVGID_2_);}
	.st3{clip-path:url(#SVGID_4_);fill:#F9BB91;}
	.st4{clip-path:url(#SVGID_4_);fill:#FF6185;}
	.st5{clip-path:url(#SVGID_4_);}
	.st6{clip-path:url(#SVGID_4_);fill:#472402;}
	.st7{clip-path:url(#SVGID_4_);fill:#AE0027;}
	.st8{clip-path:url(#SVGID_4_);fill:#FFFFFF;}
	.st9{clip-path:url(#SVGID_4_);fill:#F4914E;}
</style>
<g id="Layer_2">
	<rect class="st0" width="400" height="400"/>
</g>
<g id="Layer_1">
	<g id="Face_1">
		<g>
			<defs>
				<rect id="SVGID_1_" x="93.7" y="68.8" width="212.7" height="262.4"/>
			</defs>
			<clipPath id="SVGID_2_">
				<use xlink:href="#SVGID_1_"  style="overflow:visible;"/>
			</clipPath>
			<g class="st2">
				<defs>
					<rect id="SVGID_3_" x="93.7" y="68.8" width="212.7" height="262.4"/>
				</defs>
				<clipPath id="SVGID_4_">
					<use xlink:href="#SVGID_3_"  style="overflow:visible;"/>
				</clipPath>
				<path class="st3" d="M275.2,199.4c0-8.6,7-15.6,15.6-15.6c8.6,0,15.6,7,15.6,15.6c0,8.6-7,15.6-15.6,15.6
					C282.2,215,275.2,208,275.2,199.4"/>
				<path class="st4" d="M283.3,199.4c0-4.1,3.3-7.5,7.5-7.5s7.5,3.3,7.5,7.5c0,4.1-3.3,7.5-7.5,7.5S283.3,203.6,283.3,199.4"/>
				<path class="st3" d="M93.7,199.4c0-8.6,7-15.6,15.6-15.6s15.6,7,15.6,15.6c0,8.6-7,15.6-15.6,15.6S93.7,208,93.7,199.4"/>
				<path class="st4" d="M101.8,199.4c0-4.1,3.3-7.5,7.5-7.5c4.1,0,7.5,3.3,7.5,7.5c0,4.1-3.3,7.5-7.5,7.5
					C105.1,206.9,101.8,203.6,101.8,199.4"/>
				<path class="st3" d="M290.8,134.9v120.5c0,15.2-8.3,30.4-22,41.9L249,313.9c-27.4,23.1-72.2,23.1-99.5,0l-19.7-16.6
					c-13.7-11.5-20.5-26.7-20.5-41.9V134.9c0-25.4,40.6-46,90.8-46S290.8,109.5,290.8,134.9"/>
				<path class="st5" d="M173.6,192c0,7.5-6.1,13.6-13.6,13.6c-7.5,0-13.6-6.1-13.6-13.6c0-7.5,6.1-13.6,13.6-13.6
					C167.5,178.3,173.6,184.4,173.6,192"/>
				<path class="st6" d="M176.8,173.8H144c-3.7,0-6.8-3.1-6.8-6.8v-2.8c0-3.7,3.1-6.8,6.8-6.8h32.8c3.7,0,6.8,3.1,6.8,6.8v2.8
					C183.6,170.7,180.5,173.8,176.8,173.8"/>
				<path class="st5" d="M256.5,192c0,7.5-6.1,13.6-13.6,13.6c-7.5,0-13.6-6.1-13.6-13.6c0-7.5,6.1-13.6,13.6-13.6
					C250.4,178.3,256.5,184.4,256.5,192"/>
				<path class="st6" d="M259.7,173.8h-32.8c-3.7,0-6.8-3.1-6.8-6.8v-2.8c0-3.7,3.1-6.8,6.8-6.8h32.8c3.7,0,6.8,3.1,6.8,6.8v2.8
					C266.5,170.7,263.4,173.8,259.7,173.8"/>
				<path class="st7" d="M199.1,286.3c8.6,0,16-5.1,19.5-12.4c-5.3-4.3-12.1-6.9-19.5-6.9c-7.4,0-14.2,2.6-19.5,6.9
					C183.1,281.3,190.5,286.3,199.1,286.3"/>
				<path class="st8" d="M199.1,243.1c-11.9,0-21.6,9.7-21.6,21.6h43.2C220.7,252.8,211.1,243.1,199.1,243.1"/>
				<path class="st5" d="M199.1,267.1c7.4,0,14.2,2.6,19.5,6.9c1.3-2.8,2.1-6,2.1-9.3h-43.2c0,3.3,0.7,6.5,2.1,9.3
					C185,269.6,191.7,267.1,199.1,267.1"/>
				<path class="st6" d="M203.7,246.6l-42.3,34.5c-4.5,3.7-11.2,3-14.8-1.5c-3.7-4.5-3-11.2,1.5-14.8l42.3-34.5
					c4.5-3.7,11.2-3,14.8,1.5C208.9,236.3,208.2,242.9,203.7,246.6"/>
				<path class="st6" d="M206.9,230.9l45,36.3c4.5,3.6,5.2,10.3,1.6,14.8c-3.6,4.5-10.3,5.2-14.8,1.6l-45-36.3
					c-4.5-3.6-5.2-10.3-1.6-14.8C195.7,227.9,202.4,227.2,206.9,230.9"/>
				<path class="st9" d="M199.4,240.7h-2.7c-4.6,0-8.3-3.7-8.3-8.3v-26.2c0-4.6,3.7-8.3,8.3-8.3h2.7c4.6,0,8.3,3.7,8.3,8.3v26.2
					C207.7,237,204,240.7,199.4,240.7"/>
				<path class="st6" d="M298.2,106.2c0,20.7-31.8,37.4-71,37.4s-71-16.8-71-37.4c0-20.7,31.8-37.4,71-37.4S298.2,85.6,298.2,106.2"
					/>
				<path class="st6" d="M182.2,108.9c0,13-10.5,23.5-23.5,23.5c-13,0-23.5-10.5-23.5-23.5c0-13,10.5-23.5,23.5-23.5
					C171.7,85.4,182.2,95.9,182.2,108.9"/>
				<path class="st6" d="M154,116.7c0,11.2-9.1,20.2-20.2,20.2c-11.2,0-20.2-9.1-20.2-20.2c0-11.2,9.1-20.2,20.2-20.2
					C144.9,96.4,154,105.5,154,116.7"/>
				<path class="st6" d="M158.7,100.7c0,8.4-7.6,15.3-16.9,15.3c-9.3,0-16.9-6.8-16.9-15.3c0-8.4,7.6-15.3,16.9-15.3
					C151.1,85.4,158.7,92.2,158.7,100.7"/>
				<path class="st6" d="M151.1,96.8c-1.7-7.1,4.2-14.5,13-16.6c8.8-2.1,17.4,2,19,9.1c1.7,7.1-4.2,14.5-13,16.6
					C161.3,108,152.8,103.9,151.1,96.8"/>
				<path class="st6" d="M200,91.5c0,8.1-12,14.7-26.9,14.7s-26.9-6.6-26.9-14.7c0-8.1,12-14.7,26.9-14.7S200,83.4,200,91.5"/>
				<path class="st6" d="M116.8,138.9c-7.6-4.8-9.9-14.8-5.1-22.4c4.8-7.6,14.8-9.9,22.4-5.1c7.6,4.8,9.9,14.8,5.1,22.4
					S124.4,143.7,116.8,138.9"/>
				<path class="st6" d="M141.7,124.7c0,6.7-7.3,12.2-16.3,12.2c-9,0-16.3-5.5-16.3-12.2c0-6.7,7.3-12.2,16.3-12.2
					C134.5,112.5,141.7,118,141.7,124.7"/>
				<path class="st6" d="M137.2,124.5c0,8.6-7,15.6-15.6,15.6c-8.6,0-15.6-7-15.6-15.6c0-8.6,7-15.6,15.6-15.6
					C130.2,108.9,137.2,115.9,137.2,124.5"/>
				<path class="st6" d="M144.4,105.4c0,7.7-6.2,13.9-13.9,13.9c-7.7,0-13.9-6.2-13.9-13.9c0-7.7,6.2-13.9,13.9-13.9
					C138.2,91.5,144.4,97.8,144.4,105.4"/>
				<path class="st6" d="M173.6,90.8c0,7.7-7.1,14-15.9,14c-8.8,0-15.9-6.2-15.9-14c0-7.7,7.1-14,15.9-14
					C166.5,76.9,173.6,83.1,173.6,90.8"/>
				<path class="st6" d="M213.5,86.8c0,9.9-9,18-20.2,18c-11.1,0-20.2-8-20.2-18c0-9.9,9-18,20.2-18
					C204.5,68.8,213.5,76.9,213.5,86.8"/>
				<path class="st6" d="M193.3,80.9c0,6.7-8.8,12.1-19.7,12.1c-10.9,0-19.7-5.4-19.7-12.1c0-6.7,8.8-12.1,19.7-12.1
					C184.5,68.8,193.3,74.2,193.3,80.9"/>
				<path class="st6" d="M168.9,87.8c0,7.1-8.6,12.9-19.2,12.9c-10.6,0-19.2-5.8-19.2-12.9c0-7.1,8.6-12.9,19.2-12.9
					C160.3,74.8,168.9,80.6,168.9,87.8"/>
				<path class="st6" d="M160.4,99c0,7.5-9.4,13.6-20.9,13.6c-11.6,0-20.9-6.1-20.9-13.6c0-7.5,9.4-13.6,20.9-13.6
					C151,85.4,160.4,91.5,160.4,99"/>
				<path class="st6" d="M130.6,110.6c0,9.7-5.5,17.5-12.3,17.5c-6.8,0-12.3-7.8-12.3-17.5c0-9.7,5.5-17.5,12.3-17.5
					C125.1,93.1,130.6,100.9,130.6,110.6"/>
			</g>
		</g>
	</g>
</g>
</svg>
